<svg width="16" height="16" viewBox="0 0 16 16" fill="none" xmlns="http://www.w3.org/2000/svg">
    <path fill-rule="evenodd" clip-rule="evenodd" d="M10.0308 0.0310059V3.96901H13.9018L10.0308 0.0310059Z" fill="#0078d7"/>
    <path fill-rule="evenodd" clip-rule="evenodd" d="M4 9H4.965V10.989H4V9Z" fill="#0078d7"/>
    <path fill-rule="evenodd" clip-rule="evenodd" d="M8 9H8.953V10.953H8V9Z" fill="#0078d7"/>
    <path fill-rule="evenodd" clip-rule="evenodd" d="M8.93799 5.09209V0.0690918H2.04199V15.9381H13.938V5.09209H8.93799ZM5.03299 11.0311V12.0401H2.98199V7.97309L5.04599 7.98309V8.95409H6.02999L6.04599 11.0321H5.03299V11.0311V11.0311ZM10.012 11.0471H9.01599V12.0311H7.96899V11.0471H6.97499V8.98509H7.96899V7.96909H9.01599V8.98509H10.012V11.0471ZM13.016 9.01609H12.016V10.9851H13.016V12.0001H11.954V11.0241H10.97V8.95709H11.954V7.97109H13.016V9.01609V9.01609Z" fill="#0078d7"/>
</svg>
