<svg viewBox="0 0 16 16">
  <path
     fill-rule="evenodd"
     clip-rule="evenodd"
     d="M10.0308 0.0310059V3.96901H13.9018L10.0308 0.0310059Z"
     fill="#0078d7"
     id="path4520"
     style="fill:#217346;fill-opacity:1" />
  <path
     d="M 8.93799,5.09209 V 0.0690918 h -6.896 V 15.9381 H 13.938 V 5.09209 Z M 5.03299,12.0401 4.531,10.33713 4.003287,12.0401 H 2.9735841 L 3.845,10.0115 2.974,7.983 c 0.2613631,3.13e-5 0.7598035,5.25e-5 1.029,6.68e-5 C 4.531,9.686 4.4057602,9.6859973 4.531,9.686 c 0.1252398,2.7e-6 0,0 0.502,-1.7029065 L 6.095495,7.98309 5.2237128,10.0115 6.095,12.04 Z M 9.4553035,12.04 H 6.97499 V 7.983 h 0.994 V 7.976045 L 8.074,7.96909 c 0,0 0.021648,0.01237 0,3.05491 h 1.381 l 3.035e-4,1.016003 z M 13.016,8.716 h -1.3 v 0.731 h 1.3 V 12 H 10.98 v -0.976 h 1.474 L 12.47,10.178 H 10.98 L 10.97,9.447 V 7.97109 h 2.046 z"
     id="path4526"
     inkscape:connector-curvature="0"
     style="clip-rule:evenodd;fill:#217346;fill-opacity:1;fill-rule:evenodd"
     sodipodi:nodetypes="ccccccccccccccscccccccccccsccccccccccccccccc" />
</svg>
