<svg width="32" height="32"><path fill="#308227" d="M27 9.7c0-.3-.1-.5-.3-.7L20 2.3c-.2-.2-.5-.3-.7-.3H6c-.6 0-1 .4-1 1v26c0 .6.4 1 1 1h20c.6 0 1-.4 1-1V9.7zm-15.7 6.8v1.7H7.2v-1.7h4.1zm-4.1-.3v-1.7h4.1v1.7H7.2zm4.1 2.4v1.7H7.2v-1.7h4.1zm0 2v1.7H7.2v-1.7h4.1zm0 2v1.7H7.2v-1.7h4.1zm0 2.1v1.7H7.2v-1.7h4.1zm.4-2.4v-1.7h4.1v1.7h-4.1zm4.1.3v1.7h-4.1v-1.7h4.1zm-4.1-2.3v-1.7h4.1v1.7h-4.1zm0-2.1v-1.7h4.1v1.7h-4.1zm0-2v-1.7h4.1v1.7h-4.1zm0 8.5h4.1v1.7h-4.1v-1.7zm4.4-2.4v-1.7h4.1v1.7h-4.1zm4.1.3v1.7h-4.1v-1.7h4.1zm-4.1-2.3v-1.7h4.1v1.7h-4.1zm0-2.1v-1.7h4.1v1.7h-4.1zm0-2v-1.7h4.1v1.7h-4.1zm0 8.5h4.1v1.7h-4.1v-1.7zm4.5-2.4v-1.7h4.1v1.7h-4.1zm4.1.3v1.7h-4.1v-1.7h4.1zm-4.1-2.3v-1.7h4.1v1.7h-4.1zm0-2.1v-1.7h4.1v1.7h-4.1zm0-2v-1.7h4.1v1.7h-4.1zm0 8.5h4.1v1.7h-4.1v-1.7zm4.1-10.5h-4.1v-1.7h4.1v1.7zm-5.9-9.9l5.9 5.9h-5.9V4.3zm1.4 8.2v1.7h-4.1v-1.7h4.1zm-4.4 0v1.7h-4.1v-1.7h4.1zm-4.5 0v1.7H7.2v-1.7h4.1z"/></svg>