<svg width="32" height="32"><g fill="#C4B826"><path d="M9.5 19.4h-.3v.4h-.9v-1.7h.1v-.2c-.2.1-.4.2-.5.5l-.1.2c-.2.5 0 1.1.5 1.3l.2.1c.4.2.8.1 1.1-.2h-.1v-.4z"/><path d="M26.7 9L20 2.3c-.2-.2-.5-.3-.7-.3H6c-.6 0-1 .4-1 1v26c0 .6.4 1 1 1h20c.6 0 1-.4 1-1V9.7c0-.3-.1-.5-.3-.7zm-7.9-4.7l5.9 5.9h-5.9V4.3zm5.4 11.8v1.7h-.9v-1.7h.9zm-1.2 0v1.7h-.9v-1.7h.9zm-1.2 0v1.7h-.9v-1.7h.9zm-1.2 0v1.7h-.9v-1.7h.9zm-2.1 0h.9v1.7h-.9v-1.7zm-1.2 0h.9v1.7h-.9v-1.7zm-1.2 0h.9v1.7h-.9v-1.7zm-1.2 0h.9v1.7h-.9v-1.7zm-1.2 0h.9v1.7h-.9v-1.7zm-1.2 0h.9v1.7h-.9v-1.7zm-.9 3.6h-.9v-.4H10.4v.4H10l-1.2 2.6c-.2.5-.8.7-1.3.5l-.7-.3c-.5-.2-.7-.8-.5-1.3L7.8 18c.1-.2.3-.4.5-.5v-1.3h.3v1l.3-.3v-.6h.9v.4h.3v-.4h.9v.6c.1.1.2.1.3.2v-.8h.9V18h-.7v.3h.1v1.4zm1.2 0h-.9V18h.9v1.7zm1.2 0h-.9V18h.9v1.7zm1.2 0h-.9V18h.9v1.7zm1.2 0h-.9V18h.9v1.7zm1.2 0h-.9V18h.9v1.7zm1.2 0h-.9V18h.9v1.7zm1.2 0h-.9V18h.9v1.7zm1.2 0h-.9V18h.9v1.7zm1.2 0h-.9V18h.9v1.7zm1.2 0h-.9V18h.9v1.7zm1.2 0h-.9V18h.9v1.7zm.6 0h-.3V18h.3v1.7zm0-1.9h-.9v-1.7h.9v1.7z"/></g></svg>